<?xml version="1.0"?>
<svg viewBox="0 0 874.54945 999.99998" width="262.364832" height="300" xmlns="http://www.w3.org/2000/svg">
<style
   type="text/css"
   id="style2">
	.st0{fill:#EE1B22;}
	.st1{fill:#FFCA08;}
	.st2{fill:#0B4DA3;}
</style>
<g
   id="g33634"><g
     id="g28185"
     style="display:inline"
     transform="matrix(1.922207,0,0,1.922207,-37.631046,0)"><rect
       style="fill:#ffffff"
       id="rect17479"
       width="351.68359"
       height="412.90039"
       x="75.070312"
       y="7" /><path
       id="rect1260"
       style="display:inline;fill:#ed1b24;fill-rule:evenodd;stroke-width:1.84537"
       d="M 68.070312,0 V 426.90039 H 433.75391 V 0 Z m 7,7 H 426.75391 V 419.90039 H 75.070312 Z" /><path
       id="path10"
       style="display:inline;fill:#ed1b24;stroke-width:1.34318"
       class="st0"
       d="M 75.070312,7 V 419.90039 H 257.95117 c 3.31869,-1.32679 9.73888,-4.35224 16.61328,-10.45117 8.53808,-7.57494 14.27215,-15.87649 15.62696,-27.53516 1.35481,-11.65867 -0.15266,-20.62458 -7.92579,-29.98047 -7.77312,-9.3559 -14.21679,-9.62109 -14.21679,-9.62109 0,0 2.17583,16.20403 -5.09375,28.09766 -7.26958,11.89363 -19.19988,19.8789 -32.73633,19.8789 -13.53645,0 -23.06203,-4.69528 -32.21289,-13.38672 -9.15086,-8.69144 -14.97934,-19.54327 -14.90234,-40.86718 0.077,-21.32391 13.99913,-43.26665 33.30273,-63.51954 19.3036,-20.25289 47.62083,-39.57744 72.69336,-58.01562 25.07253,-18.43818 60.57638,-51.73023 64.90625,-85.14062 4.32987,-33.410391 -4.9114,-49.96336 -12.17578,-59.968755 18.39307,-7.309121 39.59298,-9.940382 50.98633,-17.179687 11.39335,-7.239306 12.96614,-9.534791 12.8457,-14.158204 -0.12044,-4.623413 -4.72057,-6.072561 -10.24414,-6.050781 -5.52358,0.02178 -14.5719,7.676378 -34.68164,16.527344 -20.2392,8.907948 -47.28109,14.802174 -53.19531,16.166015 -16.14375,3.722808 -35.29499,5.115464 -37.50782,8.289063 -2.7318,3.917897 0.70664,2.174975 12.39063,17.935547 11.68399,15.760568 11.66831,23.689398 8.03515,45.105468 -3.63316,21.41607 -11.09078,35.53321 -24.71679,56.24219 -10.4587,15.89527 -32.69326,37.71065 -42.42969,46.38476 -9.73643,8.67411 -10.07163,9.11908 -11.2207,8.96094 -1.14908,-0.15814 0.0669,-2.56496 2.66992,-8.4707 3.24187,-7.35532 8.68645,-19.48375 13.52539,-30.31836 9.09984,-20.37498 16.55932,-45.68263 13.67383,-66.6543 -2.88549,-20.97167 -15.99814,-32.74911 -29.8711,-32.96484 -15.4016,-0.2395 -29.50976,16.83203 -29.50976,16.83203 0,0 -5.66,-11.63573 -14.14844,-22.08594 -8.48844,-10.450204 -17.00391,-19.816404 -17.00391,-19.816404 0,0 8.96166,2.46194 25.68555,7.853515 18.73251,6.039127 45.58008,13.373349 56.86524,13.498049 11.28515,0.1247 15.1526,-0.0702 20.35156,-2.10156 5.86326,-2.29096 8.76503,-6.117685 10.50781,-11.876958 1.74278,-5.759272 -0.63175,-10.756618 -5.33789,-14.96875 -4.70613,-4.212132 -12.18076,-6.631961 -20.57031,-7.75 -17.41485,-2.320801 -43.09722,-1.387117 -56.10938,-2.75 -13.01216,-1.362883 -26.98577,-3.459178 -35.13476,-4.34375 -8.149,-0.884571 -20.28362,-3.805949 -28.42383,-8.380859 -8.1402,-4.57491 -13.93056,-10.932009 -16.54492,-17.742187 -2.61435,-6.810178 0.19877,-12.608559 4.0664,-16.107422 3.86764,-3.498864 7.89562,-5.174044 10.28516,-4.865235 2.38954,0.30881 3.27115,2.081597 4.12891,4.371094 -4.26945,6.537788 -6.41446,13.240138 -4.75196,19.544922 1.99,7.546777 8.56216,10.825841 15.18164,10.720703 6.61948,-0.105138 14.37231,-3.367133 16.68555,-13.939453 1.8382,-8.401166 0.64698,-15.096498 -5.41602,-21.902344 C 140.48563,10.688302 137.80454,8.59918 134.33203,7 Z" /></g><g
     id="g31333"
     transform="matrix(1.922207,0,0,1.922207,-37.631046,0)"
     style="fill:#ed1b24"><path
       d="m 29.097849,470.32892 12.01812,-3.51178 q 1.443735,1.79491 2.029033,3.39472 1.053537,2.77041 1.482755,7.6479 0.819418,9.59889 1.131577,20.48543 4.175126,-5.5018 9.559868,-14.55441 1.638835,-2.73139 1.638835,-5.15062 0,-1.52178 -1.911974,-2.88747 -1.872954,-1.3657 -2.341192,-2.10708 -0.468239,-0.78039 -0.468239,-1.99001 0,-1.95099 1.404716,-3.39473 1.443735,-1.44373 3.472768,-1.44373 2.146093,0 3.706888,1.63883 1.599815,1.63883 1.599815,3.86297 0,2.61433 -1.482755,6.0871 -1.443736,3.43375 -6.828478,11.82302 -6.906517,10.73046 -13.539895,18.57346 -4.253166,4.99454 -6.867498,7.17965 -2.614331,2.22414 -5.423762,3.51179 -1.677854,0.74138 -3.316689,0.74138 -2.224133,0 -3.784927,-1.5608 -1.599815,-1.56079 -1.599815,-3.70688 0,-2.1461 1.443735,-3.62885 1.404716,-1.48276 3.316689,-1.48276 2.380212,0 4.370226,2.49728 1.326675,1.67785 2.185113,1.67785 0.897457,0 1.755894,-0.50726 1.170596,-0.62432 3.277669,-2.88747 0.234119,-4.87748 0.234119,-7.37475 0,-3.35571 -0.312159,-9.44281 l -0.663337,-14.86657 q -0.351179,-4.09709 -1.755895,-5.89201 -1.092556,-1.32667 -2.84845,-1.32667 -0.663338,0 -1.482755,0.11706 z"
       id="path31170"
       style="fill:#ed1b24;stroke-width:1.99782" /><path
       d="m 100.84637,467.36341 -7.569854,25.94822 -0.780398,3.16061 q -0.117059,0.5853 -0.117059,0.85843 0,0.46824 0.312159,0.81942 0.351178,0.35118 0.702357,0.35118 0.819418,0 2.263153,-1.24864 0.585298,-0.50725 2.809431,-3.58982 l 1.365695,0.70235 q -2.770411,5.07259 -5.93102,7.41378 -3.12159,2.30217 -6.750438,2.30217 -2.224133,0 -3.394729,-1.13157 -1.170596,-1.1706 -1.170596,-2.92649 0,-1.52178 1.248636,-5.65789 l 0.936477,-3.16061 q -4.526305,7.76496 -8.701432,11.00361 -2.419232,1.87295 -5.150623,1.87295 -3.589828,0 -5.189643,-2.92649 -1.599814,-2.96551 -1.599814,-6.6724 0,-5.5018 3.355709,-12.60341 3.355709,-7.14064 8.818491,-11.47185 4.487285,-3.58982 8.428292,-3.58982 2.185113,0 3.511788,1.28765 1.326676,1.24864 1.950994,4.60435 l 1.404715,-4.79945 z m -12.486358,7.41378 q 0,-3.16061 -0.975497,-4.56533 -0.702358,-0.97549 -1.911974,-0.97549 -1.209616,0 -2.497271,1.17059 -2.614332,2.41924 -5.657882,9.83301 -3.00453,7.37476 -3.00453,12.7595 0,2.06805 0.663338,3.00453 0.702358,0.89746 1.521775,0.89746 1.755894,0 3.550808,-2.02904 2.575312,-2.88747 4.643365,-7.06259 3.667868,-7.33574 3.667868,-13.03264 z"
       id="path31172"
       style="fill:#ed1b24;stroke-width:1.99782" /><path
       d="m 132.28737,466.81714 -1.71687,12.05714 h -1.44374 q -0.31216,-4.68239 -2.88747,-7.37476 -2.53629,-2.69237 -5.46278,-2.69237 -1.79492,0 -2.96551,1.05354 -1.1706,1.05353 -1.1706,2.53629 0,1.24863 0.50726,2.34119 0.50726,1.09256 2.26315,2.96551 6.16514,6.63338 7.49182,9.13065 1.32667,2.49727 1.32667,5.34572 0,3.08257 -1.56079,5.85298 -1.5608,2.73139 -4.68239,4.40925 -3.08257,1.63883 -6.43827,1.63883 -2.26316,0 -5.57985,-0.89745 -2.18511,-0.62432 -3.27767,-0.62432 -0.97549,0 -1.52177,0.31216 -0.54628,0.27314 -1.20962,1.20961 h -1.44373 l 1.91197,-12.99361 h 1.24864 q 1.36569,4.7214 2.53629,6.75043 1.20962,1.99002 3.19963,3.19963 1.99001,1.1706 3.82395,1.1706 2.14609,0 3.5508,-1.32668 1.40472,-1.36569 1.40472,-3.23865 0,-1.83393 -0.93648,-3.5508 -0.89745,-1.71688 -4.21414,-5.34573 -4.56533,-4.95552 -6.00906,-7.64789 -1.01452,-1.951 -1.01452,-4.44827 0,-4.21414 3.04355,-7.02357 3.08257,-2.80943 8.62339,-2.80943 2.41923,0 5.93102,0.85843 1.7559,0.42922 2.80943,0.42922 1.52178,0 2.45825,-1.28765 z"
       id="path31174"
       style="fill:#ed1b24;stroke-width:1.99782" /><path
       d="m 159.94344,448.86799 -10.14517,35.15691 q 5.26768,-7.76496 7.6479,-10.49635 3.55081,-3.941 6.0871,-5.3067 2.57531,-1.40471 4.9165,-1.40471 1.99001,0 3.39473,1.52177 1.44373,1.48276 1.44373,3.98003 0,2.10707 -0.93647,5.26768 l -4.95553,16.62246 q -0.66333,2.18512 -0.66333,2.9265 0,0.35117 0.27314,0.66333 0.27313,0.27314 0.62431,0.27314 0.46824,0 0.93648,-0.3902 1.24864,-0.97549 2.65335,-3.12159 0.35118,-0.54627 1.13158,-1.63883 l 1.52177,0.85844 q -3.35571,5.54082 -6.36024,7.60887 -3.00453,2.06805 -5.6969,2.06805 -2.41923,0 -3.78492,-1.24863 -1.3657,-1.24864 -1.3657,-3.12159 0,-1.71688 0.93648,-4.87749 l 4.83846,-16.62246 q 0.46824,-1.71687 0.46824,-2.49727 0,-0.42922 -0.35118,-0.74138 -0.31216,-0.35118 -0.74138,-0.35118 -1.40471,0 -3.86296,2.34119 -5.07259,4.79945 -10.14517,15.06167 l -3.47277,11.58891 h -9.67693 l 12.79852,-44.09246 q 0.7804,-2.80943 0.7804,-4.01905 0,-0.97549 -0.7804,-1.52177 -1.01452,-0.74138 -3.12159,-0.62432 l 0.27314,-1.56079 12.99362,-2.30218 z"
       id="path31176"
       style="fill:#ed1b24;stroke-width:1.99782" /><path
       d="m 217.08951,466.81714 -5.892,21.92916 q 7.25769,-16.03716 10.92556,-19.74405 2.14609,-2.18511 4.52631,-2.18511 1.63883,0 2.65335,1.20961 1.01451,1.1706 1.01451,3.35571 0,3.78493 -1.83393,6.36024 -1.1706,1.63883 -2.61433,1.63883 -1.5608,0 -2.34119,-1.44373 -0.7804,-1.44374 -1.09256,-1.67786 -0.31216,-0.27314 -0.66334,-0.27314 -0.3902,0 -0.81942,0.23412 -0.85843,0.46824 -2.26315,2.30218 -1.36569,1.79491 -3.39473,6.04808 -2.02903,4.25316 -3.16061,7.21867 -1.13157,2.92649 -3.16061,11.19871 h -9.44281 l 6.43828,-25.87018 q 0.70236,-2.88747 0.70236,-3.82395 0,-1.05353 -0.3902,-1.63883 -0.35118,-0.5853 -1.01451,-0.85844 -0.62432,-0.27314 -2.65336,-0.27314 l 0.35118,-1.13157 11.784,-2.57531 z"
       id="path31178"
       style="fill:#ed1b24;stroke-width:1.99782" /><path
       d="m 267.57221,467.36341 -7.56986,25.94822 -0.78039,3.16061 q -0.11706,0.5853 -0.11706,0.85843 0,0.46824 0.31216,0.81942 0.35117,0.35118 0.70235,0.35118 0.81942,0 2.26316,-1.24864 0.58529,-0.50725 2.80943,-3.58982 l 1.36569,0.70235 q -2.77041,5.07259 -5.93102,7.41378 -3.12159,2.30217 -6.75044,2.30217 -2.22413,0 -3.39473,-1.13157 -1.17059,-1.1706 -1.17059,-2.92649 0,-1.52178 1.24863,-5.65789 l 0.93648,-3.16061 q -4.5263,7.76496 -8.70143,11.00361 -2.41923,1.87295 -5.15062,1.87295 -3.58983,0 -5.18965,-2.92649 -1.59981,-2.96551 -1.59981,-6.6724 0,-5.5018 3.35571,-12.60341 3.35571,-7.14064 8.81849,-11.47185 4.48728,-3.58982 8.42829,-3.58982 2.18511,0 3.51179,1.28765 1.32668,1.24864 1.95099,4.60435 l 1.40472,-4.79945 z m -12.48636,7.41378 q 0,-3.16061 -0.9755,-4.56533 -0.70235,-0.97549 -1.91197,-0.97549 -1.20962,0 -2.49727,1.17059 -2.61433,2.41924 -5.65788,9.83301 -3.00453,7.37476 -3.00453,12.7595 0,2.06805 0.66333,3.00453 0.70236,0.89746 1.52178,0.89746 1.75589,0 3.55081,-2.02904 2.57531,-2.88747 4.64336,-7.06259 3.66787,-7.33574 3.66787,-13.03264 z"
       id="path31180"
       style="fill:#ed1b24;stroke-width:1.99782" /><path
       d="m 287.26822,448.86799 q 2.41923,0 4.09709,1.71688 1.67785,1.67785 1.67785,4.09708 0,2.38022 -1.71687,4.09709 -1.67786,1.67786 -4.05807,1.67786 -2.41923,0 -4.13611,-1.67786 -1.67785,-1.71687 -1.67785,-4.09709 0,-2.41923 1.67785,-4.09708 1.71688,-1.71688 4.13611,-1.71688 z m 3.27767,17.94915 -8.31123,30.70863 q -2.57532,9.40379 -5.77495,14.86657 -2.22413,3.82395 -5.97004,5.81397 -3.70688,2.02903 -7.64789,2.02903 -3.27767,0 -4.83846,-1.28766 -1.59982,-1.28765 -1.59982,-2.92649 0,-1.63883 1.32668,-2.92649 1.28765,-1.24863 3.31669,-1.24863 1.56079,0 2.45825,0.81941 0.89745,0.85844 0.89745,2.02904 0,1.13157 -1.05353,2.26315 -0.42922,0.46824 -0.42922,0.70236 0,0.27314 0.27314,0.46824 0.23412,0.23412 0.74138,0.23412 1.71687,0 2.96551,-1.951 0.85843,-1.28765 3.04355,-9.67693 l 7.96005,-30.0453 q 0.85844,-3.23865 0.85844,-4.05806 0,-0.7804 -0.85844,-1.48276 -0.85844,-0.74138 -2.26315,-0.74138 -0.42922,0 -1.01452,0.039 l 0.42922,-1.48275 13.1497,-2.14609 z"
       id="path31182"
       style="fill:#ed1b24;stroke-width:1.99782" /><path
       d="m 332.43519,472.47502 -4.56533,18.02718 q -3.19963,12.7595 -6.24318,18.49542 -3.04355,5.73592 -7.14063,8.46731 -4.05807,2.77041 -9.32575,2.77041 -3.31669,0 -4.87749,-1.28766 -1.56079,-1.24863 -1.56079,-2.96551 0,-1.59981 1.28765,-2.77041 1.28766,-1.17059 3.39473,-1.17059 1.7559,0 2.69237,0.89745 0.93648,0.89746 0.93648,2.26316 0,1.24863 -0.5853,1.83393 -0.58529,0.62432 -0.58529,0.81942 l 0.19509,0.27314 q 0.23412,0.1951 0.54628,0.1951 1.1706,0 1.99002,-0.74138 2.06805,-1.83394 3.08257,-4.44827 0.70235,-1.79491 2.69237,-9.48183 l 7.96005,-31.17687 h -5.42376 l 1.28765,-4.56533 q 2.92649,0.039 4.25317,-0.74138 1.32668,-0.78039 2.80943,-3.51178 4.29219,-7.92104 9.05261,-11.35479 4.76043,-3.43375 10.61341,-3.43375 3.7459,0 5.42376,1.44374 1.71687,1.44373 1.71687,3.74591 0,2.02903 -1.13157,3.23865 -1.13158,1.17059 -2.80943,1.17059 -1.5608,0 -2.57532,-0.97549 -1.01451,-0.9755 -1.01451,-2.3412 0,-0.97549 0.62432,-2.06805 0.66333,-1.09256 0.66333,-1.48275 0,-0.42922 -0.31216,-0.70236 -0.27313,-0.27314 -0.74137,-0.27314 -2.30218,0 -4.72141,2.84845 -3.98002,4.56532 -6.39926,14.43735 h 5.65788 l -1.36569,4.56533 z"
       id="path31184"
       style="fill:#ed1b24;stroke-width:1.99782" /><path
       d="m 356.11122,448.86799 q 2.41923,0 4.05806,1.67786 1.67786,1.67785 1.67786,4.05807 0,2.38021 -1.67786,4.05806 -1.67785,1.67786 -4.05806,1.67786 -2.34119,0 -4.01905,-1.67786 -1.67785,-1.67785 -1.67785,-4.05806 0,-2.38022 1.63883,-4.05807 1.67786,-1.67786 4.05807,-1.67786 z m 2.41923,17.94915 -7.99907,27.74312 q -0.66334,2.38022 -0.66334,3.12159 0,0.42922 0.35118,0.81942 0.35118,0.35118 0.74137,0.35118 0.66334,0 1.32668,-0.5853 1.75589,-1.44373 4.21415,-5.22866 l 1.32667,0.7804 q -5.892,10.26222 -12.52538,10.26222 -2.53629,0 -4.05806,-1.40471 -1.48276,-1.44374 -1.48276,-3.62885 0,-1.44374 0.66334,-3.66787 l 5.42376,-18.6515 q 0.7804,-2.69237 0.7804,-4.05806 0,-0.85844 -0.74138,-1.52178 -0.74138,-0.66334 -2.02903,-0.66334 -0.5853,0 -1.40472,0.039 l 0.50726,-1.56079 13.22774,-2.14609 z"
       id="path31186"
       style="fill:#ed1b24;stroke-width:1.99782" /><path
       d="m 385.67928,448.86799 -12.91557,43.93638 q -1.13158,3.90199 -1.13158,4.87748 0,0.50726 0.31216,0.85844 0.35118,0.35118 0.74138,0.35118 0.70235,0 1.32667,-0.54628 1.87296,-1.52177 4.17513,-5.15062 l 1.52177,0.70236 q -3.70688,5.93102 -7.29671,8.46731 -2.45825,1.71687 -5.22867,1.71687 -2.57531,0 -4.09708,-1.36569 -1.52178,-1.40472 -1.52178,-3.35571 0,-1.44374 0.93648,-4.64337 l 10.53537,-35.97632 q 0.85843,-2.96551 0.85843,-3.94101 0,-0.93647 -0.81941,-1.48275 -1.09256,-0.7804 -3.31669,-0.66334 l 0.42922,-1.48275 13.14969,-2.30218 z"
       id="path31188"
       style="fill:#ed1b24;stroke-width:1.99782" /><path
       d="m 403.85352,466.81714 -4.99455,16.77854 q 5.03357,-7.72593 7.33574,-10.41831 3.39473,-3.941 5.57984,-5.15062 2.22413,-1.20961 4.44827,-1.20961 2.53629,0 3.66786,1.52177 1.13158,1.52178 1.13158,3.35571 0,1.91197 -1.05354,5.61886 l -1.75589,6.2822 q 5.07258,-7.80397 7.29672,-10.37929 3.43374,-3.98002 5.97004,-5.38474 1.75589,-1.01451 3.7459,-1.01451 2.06806,0 3.43375,1.40471 1.40472,1.3657 1.40472,3.58983 0,2.49727 -1.1706,6.4773 l -4.3312,14.55441 q -0.9755,3.23865 -0.9755,4.17513 0,0.31215 0.23412,0.58529 0.27314,0.27314 0.5853,0.27314 0.42922,0 0.74137,-0.27314 1.40472,-1.13157 2.96551,-3.31669 0.35118,-0.46823 1.05354,-1.44373 l 1.32668,0.85844 q -2.69237,5.03356 -5.93102,7.37475 -3.19963,2.34119 -5.93102,2.34119 -2.38022,0 -3.82395,-1.28765 -1.44374,-1.32668 -1.44374,-3.08257 0,-1.67786 0.9755,-5.07258 l 4.40925,-15.21775 q 0.89745,-3.16061 0.89745,-3.94101 0,-0.27314 -0.27314,-0.50726 -0.27314,-0.27314 -0.54628,-0.27314 -0.50725,0 -1.01451,0.23412 -0.74138,0.3902 -2.30217,2.02903 -1.52178,1.63884 -4.40925,5.892 -2.88747,4.21415 -4.01905,6.59436 -1.09255,2.38021 -2.18511,6.16514 l -2.38021,8.0381 h -9.87203 l 7.29672,-25.47998 q 0.5853,-2.06805 0.5853,-2.84845 0,-0.27314 -0.27314,-0.50726 -0.23412,-0.23412 -0.50726,-0.23412 -1.44374,0 -4.56533,3.78493 -4.76042,5.85298 -8.66241,14.08617 l -3.16061,11.19871 h -9.95007 l 7.33574,-25.08978 q 1.09256,-3.70689 1.09256,-5.26768 0,-0.62432 -0.31216,-1.05354 -0.31216,-0.46824 -1.01452,-0.70236 -0.70236,-0.27314 -2.69237,-0.27314 l 0.3902,-1.48275 13.30577,-2.30217 z"
       id="path31190"
       style="fill:#ed1b24;stroke-width:1.99782" /><path
       d="m 474.54851,466.81714 -1.71688,12.05714 h -1.44373 q -0.31216,-4.68239 -2.88747,-7.37476 -2.53629,-2.69237 -5.46278,-2.69237 -1.79492,0 -2.96551,1.05354 -1.1706,1.05353 -1.1706,2.53629 0,1.24863 0.50726,2.34119 0.50726,1.09256 2.26315,2.96551 6.16514,6.63338 7.49182,9.13065 1.32667,2.49727 1.32667,5.34572 0,3.08257 -1.56079,5.85298 -1.5608,2.73139 -4.68239,4.40925 -3.08257,1.63883 -6.43828,1.63883 -2.26315,0 -5.57984,-0.89745 -2.18511,-0.62432 -3.27767,-0.62432 -0.97549,0 -1.52177,0.31216 -0.54628,0.27314 -1.20962,1.20961 h -1.44373 l 1.91197,-12.99361 h 1.24864 q 1.36569,4.7214 2.53629,6.75043 1.20961,1.99002 3.19963,3.19963 1.99001,1.1706 3.82394,1.1706 2.1461,0 3.55081,-1.32668 1.40472,-1.36569 1.40472,-3.23865 0,-1.83393 -0.93648,-3.5508 -0.89746,-1.71688 -4.21414,-5.34573 -4.56533,-4.95552 -6.00906,-7.64789 -1.01452,-1.951 -1.01452,-4.44827 0,-4.21414 3.04355,-7.02357 3.08257,-2.80943 8.62339,-2.80943 2.41923,0 5.93102,0.85843 1.7559,0.42922 2.80943,0.42922 1.52178,0 2.45825,-1.28765 z"
       id="path31192"
       style="fill:#ed1b24;stroke-width:1.99782" /></g></g></svg>
